<?xml version="1.0" encoding="utf-8"?>
<!-- Generator: Adobe Illustrator 30.0.0, SVG Export Plug-In . SVG Version: 9.03 Build 0)  -->
<svg version="1.0" id="Vrstva_1" xmlns="http://www.w3.org/2000/svg" xmlns:xlink="http://www.w3.org/1999/xlink" x="0px" y="0px"
	 viewBox="0 0 43.3 61.7" style="enable-background:new 0 0 43.3 61.7;" xml:space="preserve">
<style type="text/css">
	.st0{fill-rule:evenodd;clip-rule:evenodd;fill:#D0103A;}
	.st1{fill:#D0103A;}
</style>
<g>
	<path class="st0" d="M13.7,15.3L0,24.9v4.8l13.7-9.6V15.3z M43.3,15.1v28.6H17.7v-7l4-2.8v5.8h17.7V17.2L25.6,7.6V2.8L43.3,15.1z
		 M17.7,22.2L0,34.6v9.2h4v-7.1l17.7-12.4c0-8.1,0-16.2,0-24.3L0,15.1V20L17.7,7.6V22.2z"/>
	<g>
		<path class="st1" d="M3,59.2v0.3c0,0.3,0.1,0.5,0.2,0.7c0.1,0.2,0.3,0.3,0.6,0.3c0.2,0,0.3,0,0.4-0.1c0.1-0.1,0.2-0.1,0.3-0.2
			c0.1-0.1,0.1-0.2,0.1-0.3s0-0.2,0-0.3c0-0.3-0.1-0.5-0.2-0.6c-0.2-0.2-0.4-0.3-0.6-0.4c-0.2-0.1-0.5-0.2-0.8-0.3
			c-0.3-0.1-0.6-0.2-0.8-0.4s-0.5-0.4-0.6-0.7c-0.2-0.3-0.2-0.7-0.2-1.2c0-0.3,0-0.6,0.1-0.9s0.2-0.5,0.4-0.7
			c0.2-0.2,0.5-0.4,0.8-0.5s0.7-0.2,1.2-0.2c0.5,0,0.8,0.1,1.1,0.2c0.3,0.1,0.6,0.3,0.8,0.4c0.2,0.2,0.3,0.4,0.4,0.7
			c0.1,0.3,0.1,0.5,0.1,0.8V56H4.5c0-0.4-0.1-0.6-0.2-0.8c-0.1-0.2-0.3-0.3-0.6-0.3c-0.5,0-0.7,0.3-0.7,0.8c0,0.3,0.1,0.5,0.2,0.6
			c0.2,0.2,0.4,0.3,0.6,0.4c0.2,0.1,0.5,0.2,0.8,0.3c0.3,0.1,0.5,0.2,0.8,0.4s0.5,0.4,0.6,0.7c0.2,0.3,0.2,0.6,0.2,1.1
			c0,0.4-0.1,0.8-0.2,1.1c-0.1,0.3-0.3,0.6-0.5,0.8c-0.2,0.2-0.5,0.3-0.8,0.4s-0.7,0.1-1.1,0.1c-0.3,0-0.6,0-1-0.1
			c-0.3-0.1-0.6-0.2-0.8-0.3c-0.2-0.2-0.4-0.4-0.6-0.6c-0.1-0.3-0.2-0.6-0.2-1v-0.5H3z"/>
		<path class="st1" d="M8.5,53.8h2.8c0.5,0,0.9,0.1,1.2,0.2c0.3,0.2,0.5,0.3,0.7,0.6c0.2,0.2,0.3,0.5,0.3,0.8
			c0.1,0.3,0.1,0.5,0.1,0.8c0,0.3,0,0.7-0.1,0.9c-0.1,0.3-0.2,0.5-0.4,0.7c-0.2,0.2-0.5,0.4-0.8,0.5c-0.3,0.1-0.7,0.2-1.1,0.2h-0.8
			v3H8.5V53.8z M10.3,57.2h0.5c0.2,0,0.3,0,0.4-0.1c0.1-0.1,0.2-0.1,0.3-0.2c0.1-0.1,0.1-0.2,0.1-0.3c0-0.1,0-0.2,0-0.4
			c0-0.2,0-0.3,0-0.4s-0.1-0.2-0.1-0.3c-0.1-0.1-0.2-0.2-0.3-0.2c-0.1-0.1-0.3-0.1-0.5-0.1h-0.5V57.2z"/>
		<path class="st1" d="M15.7,53.8h3c0.4,0,0.7,0.1,1,0.2c0.3,0.1,0.5,0.3,0.6,0.4c0.2,0.2,0.3,0.4,0.4,0.6c0.1,0.2,0.1,0.5,0.1,0.8
			c0,0.6-0.1,1-0.3,1.3c-0.2,0.3-0.5,0.5-1,0.6v0c0.3,0,0.5,0.1,0.7,0.2c0.2,0.1,0.3,0.2,0.4,0.4s0.1,0.4,0.2,0.6s0,0.5,0,0.7
			c0,0.4,0,0.7,0,0.9c0,0.2,0,0.4,0.1,0.5c0,0.1,0.1,0.2,0.1,0.2s0.1,0.1,0.2,0.1v0.1h-2C19,61.4,19,61.2,19,61s0-0.6,0-1
			c0-0.3,0-0.6,0-0.8c0-0.2-0.1-0.4-0.1-0.5c-0.1-0.1-0.1-0.2-0.2-0.2c-0.1,0-0.2-0.1-0.4-0.1h-0.7v3.2h-1.8V53.8z M17.5,57.1H18
			c0.2,0,0.3,0,0.5-0.1c0.1-0.1,0.2-0.1,0.3-0.2c0.1-0.1,0.1-0.2,0.1-0.3c0-0.1,0-0.2,0-0.4c0-0.3-0.1-0.5-0.2-0.7
			c-0.1-0.2-0.4-0.3-0.7-0.3h-0.5V57.1z"/>
		<path class="st1" d="M24.5,53.8h2.3l1.9,7.7h-1.9l-0.3-1.5h-1.8l-0.3,1.5h-1.9L24.5,53.8z M25.6,55.2L25.6,55.2l-0.7,3.4h1.3
			L25.6,55.2z M25.5,51.8h1.7l-1.1,1.5H25L25.5,51.8z"/>
		<path class="st1" d="M29.6,53.8h1.9l0.9,6h0l0.9-6h1.9l-1.7,7.7h-2.3L29.6,53.8z"/>
		<path class="st1" d="M38.1,53.8h2.3l1.9,7.7h-1.9l-0.3-1.5h-1.8L38,61.5h-1.9L38.1,53.8z M39.2,55.2L39.2,55.2l-0.7,3.4h1.3
			L39.2,55.2z"/>
	</g>
</g>
</svg>
